<svg height="128" viewBox="0 0 583 128" width="583" xmlns="http://www.w3.org/2000/svg" xmlns:xlink="http://www.w3.org/1999/xlink"><mask id="a" fill="#fff"><path d="m1.19 127.9v-116.89c0-5.51 4.51-10.02 10.02-10.02h126.91c5.51 0 10.02 4.51 10.02 10.02v116.89zm50.1-20.03c0 3.69 2.99 6.68 6.68 6.68h33.4c3.68 0 6.68-2.99 6.68-6.68s-3-6.68-6.68-6.68h-33.4c-3.69 0-6.68 2.99-6.68 6.68z" fill="#fff" fill-rule="evenodd"/></mask><mask id="b" fill="#fff"><path d="m.55 11.01c0-.05 0-.1 0-.15 0-.04 0-.08 0-.12 0-.03 0-.07 0-.1 0-.01 0-.01 0-.01 0-.01 0-.01 0-.01 0-.03 0-.06 0-.09 0-.02 0-.04 0-.06v-.01c0-.02 0-.04 0-.06 0-.01 0-.01 0-.01 0-.05 0-.1 0-.15v-.01c0-.02 0-.04 0-.05s0-.01 0-.02 0-.01 0-.02c0-.02 0-.03 0-.05 0-.03 0-.06 0-.09 0-.01 0-.01 0-.02 0-.07.01-.13.01-.2 0-.01 0-.01 0-.01 0-.02 0-.05 0-.07 0-.01 0-.02 0-.03 0-.02 0-.05 0-.07s0 0 0-.01c0-.04 0-.09 0-.14.01-.02.01-.04.01-.05s0-.01 0-.01c0-.01 0-.02 0-.03v-.01c0-.01 0-.03 0-.04 0-.03 0-.05 0-.08s0-.01 0-.02c0-.02 0-.05 0-.07 0-.04.01-.08.01-.13 0-.09 0-.17.01-.25 0-.01 0-.03 0-.04s0-.02 0-.04c0-.01 0-.02 0-.03 0-.02 0-.04 0-.06 0-.01 0-.02 0-.04s0-.04 0-.06c0-.01.01-.02.01-.02 0-.02 0-.04 0-.06s0-.04 0-.06c0-.03 0-.06 0-.08 0-.01 0-.01 0-.01.01-.01.01-.02.01-.03 0-.02 0-.04 0-.05s0-.03 0-.04 0-.01 0-.02c0-.05 0-.1.01-.15 0-.02 0-.04 0-.07s.01-.07.01-.11 0-.08 0-.11c0-.02 0-.03 0-.05.01-.05.01-.1.01-.15 0-.01 0-.02 0-.03.01-.02.01-.04.01-.05s0-.01 0-.02 0-.02 0-.02c0-.01 0-.01 0-.01 0-.02 0-.03 0-.04 0-.03 0-.05.01-.07 0-.02 0-.03 0-.05s0 0 0-.01v-.01c0-.01 0-.01 0-.01 0-.01 0-.02 0-.03s0 0 0-.01 0-.02.01-.03c0-.03 0-.06 0-.09s0 0 0-.01 0-.02 0-.03c0-.03.01-.05.01-.07s0-.03 0-.04 0-.01 0-.02c0-.03.01-.06.01-.09 0-.02 0-.04 0-.05 0-.03 0-.06.01-.08v-.01-.01c0-.03 0-.06 0-.09.01-.02.01-.03.01-.05s0-.03 0-.05 0-.05.01-.07c.03-.46.07-.92.11-1.37 0-.01 0-.01 0-.01 0-.01 0-.02 0-.03s0-.01.01-.01 0 0 0-.01c0-.04 0-.08.01-.13 0-.03 0-.06.01-.09 0-.03 0-.05.01-.08.12-1.21.27-2.41.46-3.61h125.34c.11.69.2 1.38.29 2.07 0 .02.01.04.01.06v.03c.01.09.02.18.03.27.01.02.01.03.01.04v.03c0 .02.01.05.01.07.01.05.01.11.02.17.01.07.01.13.02.2.04.35.08.69.11 1.04 0 .05.01.1.01.15.01.02.01.03.01.04v.06c0 .02.01.04.01.06v.03.01.01c.01.04.01.09.01.13 0 .01.01.02.01.03v.03c0 .03.01.07.01.11v.02c0 .04.01.09.01.14v.01.01c.01.1.02.21.03.32 0 .04 0 .08.01.12 0 .09.01.18.02.27v.05.01.05c.01 0 .01.01.01.01 0 .06 0 .12.01.18v.05.06c.01.01.01.02.01.03v.03.02.08c0 .02.01.03.01.05v.11c0 .01.01.02.01.04v.02.04.04.05c.01.03.01.06.01.09v.04c.01.12.01.25.02.37v.03.01.01.01c.01.04.01.07.01.1v.05.01.03c0 .03 0 .06.01.1v.06.01.01.13c0 .01.01.02.01.03v.04.05c0 .07 0 .15.01.22v.06.03.04.02.06c0 .02.01.04.01.05v.02.05.02.13.03.02.02.02c0 .04.01.09.01.13v.21.02.03.04.01.08c0 .01.01.01.01.01v.03.04.08.01.04.02.02.05.01.15.01.07.06.1.01.11.11.15c0 35.05-28.4 63.46-63.45 63.46-35.04 0-63.45-28.41-63.45-63.46" fill="#fff" fill-rule="evenodd"/></mask><mask id="c" fill="#fff"><path d="m1.19 127.9v-116.89c0-5.51 4.51-10.02 10.02-10.02h126.91c5.51 0 10.02 4.51 10.02 10.02v116.89zm50.1-20.03c0 3.69 2.99 6.68 6.68 6.68h33.4c3.68 0 6.68-2.99 6.68-6.68s-3-6.68-6.68-6.68h-33.4c-3.69 0-6.68 2.99-6.68 6.68z" fill="#fff" fill-rule="evenodd"/></mask><mask id="d" fill="#fff"><path d="m1.19 63.9h146.95v-63.45h-146.95z" fill="#fff" fill-rule="evenodd"/></mask><mask id="e" fill="#fff"><path d="m0 200h661.33v-200h-661.33z" fill="#fff" fill-rule="evenodd"/></mask><g fill="none" fill-rule="evenodd" transform="matrix(1 0 0 -1 -31 164)"><g fill-rule="nonzero" mask="url(#a)" transform="translate(30.666666 35.999999)"><path d="m1.19 127.9h146.95v-126.91h-146.95z" fill="#eee"/><path d="m41.33 14.67h-33.39c-3.69 0-6.68-2.99-6.68-6.68s2.99-6.68 6.68-6.68h33.39c3.69 0 6.68 2.99 6.68 6.68s-2.99 6.68-6.68 6.68" fill="#fff" transform="translate(50.031865 99.878264)"/></g><g fill-rule="nonzero" mask="url(#b)" transform="translate(41.333332 35.999999)"><path d="m0 78.67v-77.88h28.4l24.98 43.27h63.45v34.61zm0 0v-77.88h28.4l24.98 43.27h63.45v34.61z" fill="#db4437" transform="translate(10.623066 -4.198533)"/><path d="m0 0h60.4l28.04 28.04v20.99l-49.97.01-38.47 65.98zm0 0h60.4l28.04 28.04v20.99l-49.97.01-38.47 65.98z" fill="#0f9d58" transform="translate(.5456 -52.441465)"/><path d="m4 93.33 24.98-43.26-28.03-49.04h66.5v92.3zm0 0 24.98-43.26-28.03-49.04h66.5v92.3z" fill="#ffcd40" transform="translate(59.999999 -53.472665)"/><path d="m29.33 58.67c15.94 0 28.85-12.92 28.85-28.85s-12.91-28.85-28.85-28.85c-15.93 0-28.84 12.92-28.84 28.85s12.91 28.85 28.84 28.85" fill="#f1f1f1" transform="translate(34.666666 -18.805999)"/><path d="m24 46.67c12.75 0 23.08-10.34 23.08-23.08 0-12.75-10.33-23.08-23.08-23.08s-23.08 10.33-23.08 23.08c0 12.74 10.33 23.08 23.08 23.08" fill="#4285f4" transform="translate(39.999999 -12.575466)"/></g><g mask="url(#c)" transform="translate(30.666666 35.999999)"><g fill="#212121" fill-rule="nonzero" mask="url(#d)" opacity=".05" transform="translate(0 63.999998)"><path d="m1.19 63.9h146.95v-63.45h-146.95z"/></g></g><g mask="url(#e)"><g fill="#5f6368" fill-rule="nonzero" transform="translate(213.333328 57.333332)"><path d="m18.67 0c-5.2 0-9.56 1.76-13.08 5.28s-5.28 7.91-5.28 13.17 1.76 9.65 5.28 13.17 7.88 5.28 13.08 5.28c5.32 0 9.65-1.92 12.97-5.77l-3.16-3.06c-2.4 2.99-5.67 4.49-9.81 4.49-3.85 0-7.1-1.3-9.75-3.9-2.64-2.6-3.97-6-3.97-10.21s1.33-7.61 3.97-10.21c2.65-2.6 5.9-3.9 9.75-3.9 4.24 0 7.86 1.71 10.85 5.13l3.16-3.16c-1.61-1.94-3.64-3.47-6.07-4.61-2.44-1.13-5.08-1.7-7.94-1.7" transform="translate(.177067 1.7864)"/><path d="m5.33 36v-11.15l-.19-3.35h.19c.66 1.15 1.7 2.13 3.11 2.93 1.41.81 2.93 1.21 4.54 1.21 2.99 0 5.28-.92 6.86-2.76 1.58-1.85 2.37-4.31 2.37-7.4v-14.8h-4.54v14.11c0 4.47-1.99 6.71-5.97 6.71-1.88 0-3.41-.75-4.59-2.25s-1.78-3.23-1.78-5.2v-13.37h-4.54v35.32z" transform="translate(36.105466 1.8984)"/><path d="m5.33 0h-4.54v24.17h4.35v-3.94h.19c.46 1.31 1.41 2.4 2.84 3.25 1.43.86 2.82 1.29 4.17 1.29s2.48-.2 3.4-.6l-1.72-4.24c-.6.23-1.4.35-2.42.35-1.65 0-3.1-.65-4.37-1.95-1.26-1.3-1.9-3-1.9-5.11z" transform="translate(62.843732 2.575467)"/><path d="m8 6.67c1.56-1.6 3.41-2.4 5.55-2.4s3.99.8 5.55 2.4c1.56 1.59 2.34 3.7 2.34 6.34 0 2.63-.78 4.74-2.34 6.34-1.56 1.59-3.41 2.39-5.55 2.39s-3.99-.8-5.55-2.39c-1.56-1.6-2.34-3.71-2.34-6.34 0-2.64.78-4.75 2.34-6.34m-3.38 15.54c2.34 2.45 5.31 3.67 8.93 3.67s6.59-1.22 8.93-3.67c2.33-2.45 3.5-5.52 3.5-9.2 0-3.69-1.17-6.76-3.5-9.2-2.34-2.46-5.31-3.68-8.93-3.68s-6.59 1.22-8.93 3.68c-2.33 2.44-3.5 5.51-3.5 9.2 0 3.68 1.17 6.75 3.5 9.2" transform="translate(77.565731 1.656267)"/><path d="m0 0v24.17h4.34v-3.35h.2c.69 1.15 1.75 2.13 3.18 2.93 1.43.81 2.85 1.21 4.27 1.21 3.75 0 6.3-1.54 7.64-4.63 1.98 3.09 4.79 4.63 8.44 4.63 2.86 0 5.02-.91 6.46-2.73 1.45-1.83 2.17-4.31 2.17-7.43v-14.8h-4.53v14.11c0 2.43-.45 4.16-1.34 5.18-.88 1.02-2.23 1.53-4.04 1.53-1.78 0-3.25-.76-4.42-2.27-1.16-1.51-1.75-3.24-1.75-5.18v-13.37h-4.54v14.11c0 2.43-.44 4.16-1.33 5.18s-2.24 1.53-4.04 1.53c-1.78 0-3.25-.76-4.42-2.27s-1.75-3.24-1.75-5.18v-13.37z" transform="translate(107.198531 2.575467)"/><path d="m20 16c-.1 1.38-.73 2.7-1.9 3.95s-2.9 1.87-5.2 1.87c-1.68 0-3.14-.53-4.37-1.58s-2.08-2.46-2.54-4.24zm-6.51-15.79c-3.65 0-6.62 1.22-8.91 3.65-2.28 2.44-3.43 5.51-3.43 9.23 0 3.52 1.11 6.54 3.33 9.08 2.22 2.53 5.06 3.8 8.51 3.8 3.59 0 6.46-1.17 8.61-3.51 2.16-2.33 3.23-5.46 3.23-9.37l-.04-.84h-19.1c.13-2.43.95-4.36 2.45-5.77 1.49-1.42 3.24-2.12 5.25-2.12 3.26 0 5.46 1.38 6.61 4.14l4.05-1.68c-.79-1.87-2.09-3.44-3.9-4.71-1.81-1.26-4.03-1.9-6.66-1.9z" transform="translate(146.693996 1.572933)"/><path d="m44 36-9.42-35.32h-4.64l-7.6 23.28h-.2l-7.59-23.28h-4.64l-9.82 35.32h4.74l7.45-27.77h.19l7.65 23.03h4.24l7.65-23.03h.2l7.05 27.77z" transform="translate(182.486929 1.8984)"/><path d="m20 16c-.1 1.38-.73 2.7-1.9 3.95s-2.9 1.87-5.2 1.87c-1.68 0-3.14-.53-4.37-1.58s-2.08-2.46-2.54-4.24zm-6.51-15.79c-3.65 0-6.62 1.22-8.91 3.65-2.28 2.44-3.43 5.51-3.43 9.23 0 3.52 1.11 6.54 3.33 9.08 2.22 2.53 5.06 3.8 8.51 3.8 3.59 0 6.46-1.17 8.61-3.51 2.16-2.33 3.23-5.46 3.23-9.37l-.04-.84h-19.1c.13-2.43.95-4.36 2.45-5.77 1.49-1.42 3.24-2.12 5.25-2.12 3.26 0 5.46 1.38 6.61 4.14l4.05-1.68c-.79-1.87-2.09-3.44-3.9-4.71-1.81-1.26-4.03-1.9-6.66-1.9z" transform="translate(224.789061 1.572933)"/><path d="m13.33 5.33c2.11 0 3.92.8 5.43 2.4 1.51 1.59 2.27 3.7 2.27 6.34 0 2.63-.76 4.74-2.27 6.34-1.51 1.59-3.32 2.39-5.43 2.39-2.14 0-3.95-.79-5.45-2.37-1.49-1.58-2.24-3.7-2.24-6.36 0-2.67.75-4.79 2.24-6.37 1.5-1.58 3.31-2.37 5.45-2.37m.74-4.14c-1.84 0-3.49.39-4.95 1.18-1.47.79-2.56 1.78-3.29 2.96h-.19v-3.35h-4.34v35.32h4.53v-11.15l-.19-3.35h.19c.73 1.18 1.82 2.17 3.29 2.96 1.46.79 3.11 1.18 4.95 1.18 3.13 0 5.83-1.23 8.09-3.7 2.27-2.47 3.41-5.52 3.41-9.17s-1.14-6.71-3.41-9.18c-2.26-2.47-4.96-3.7-8.09-3.7" transform="translate(252.471327 .5964)"/><path d="m13.33 0c-2.56 0-5.07.84-7.52 2.52-2.45 1.67-4.05 4.02-4.81 7.05l4.14 1.68c.5-1.94 1.51-3.58 3.04-4.91s3.25-2 5.15-2c1.98 0 3.66.52 5.06 1.55 1.4 1.04 2.1 2.45 2.1 4.22 0 1.98-.7 3.5-2.1 4.57s-3.61 2.06-6.64 2.98c-3.12.99-5.49 2.26-7.1 3.82-1.61 1.57-2.42 3.56-2.42 6 0 2.53 1.01 4.73 3.01 6.61 2.01 1.87 4.62 2.81 7.85 2.81 2.99 0 5.42-.75 7.3-2.24 1.87-1.5 3.09-3.14 3.65-4.91l-4.15-1.73c-.29 1.12-1.02 2.15-2.19 3.11-1.17.95-2.67 1.43-4.51 1.43-1.75 0-3.24-.49-4.47-1.46s-1.85-2.17-1.85-3.62c0-1.32.57-2.43 1.7-3.33 1.14-.91 2.81-1.72 5.01-2.44 1.74-.56 3.2-1.11 4.37-1.63 1.16-.53 2.35-1.23 3.55-2.1s2.1-1.95 2.71-3.25.92-2.81.92-4.52-.36-3.24-1.07-4.59c-.7-1.35-1.64-2.41-2.81-3.2s-2.42-1.39-3.77-1.8-2.73-.62-4.15-.62" transform="translate(288.977859 1.7864)"/><path d="m13.33 0c-2.53 0-4.46.67-5.79 2.02-1.34 1.35-2 3.26-2 5.73v12.67h-4.24v4.15h4.24v7.4h4.54v-7.4h5.92v-4.15h-5.92v-12.33c0-2.63 1.08-3.95 3.25-3.95.82 0 1.52.13 2.08.4l1.57-3.9c-.98-.43-2.2-.64-3.65-.64" transform="translate(314.730525 2.180933)"/><path d="m8 6.67c1.56-1.6 3.41-2.4 5.55-2.4s3.99.8 5.55 2.4c1.56 1.59 2.34 3.7 2.34 6.34 0 2.63-.78 4.74-2.34 6.34-1.56 1.59-3.41 2.39-5.55 2.39s-3.99-.8-5.55-2.39c-1.56-1.6-2.34-3.71-2.34-6.34 0-2.64.78-4.75 2.34-6.34m-3.38 15.54c2.34 2.45 5.31 3.67 8.93 3.67s6.59-1.22 8.93-3.67c2.33-2.45 3.5-5.52 3.5-9.2 0-3.69-1.17-6.76-3.5-9.2-2.34-2.46-5.31-3.68-8.93-3.68s-6.59 1.22-8.93 3.68c-2.33 2.44-3.5 5.51-3.5 9.2 0 3.68 1.17 6.75 3.5 9.2" transform="translate(332.322925 1.656267)"/><path d="m5.33 0h-4.53v24.17h4.34v-3.94h.19c.46 1.31 1.41 2.4 2.84 3.25 1.43.86 2.82 1.29 4.17 1.29s2.48-.2 3.4-.6l-1.72-4.24c-.6.23-1.4.35-2.42.35-1.65 0-3.1-.65-4.37-1.95-1.26-1.3-1.9-3-1.9-5.11z" transform="translate(361.160124 2.575467)"/><path d="m20 16c-.1 1.38-.73 2.7-1.9 3.95s-2.9 1.87-5.2 1.87c-1.68 0-3.14-.53-4.37-1.58s-2.08-2.46-2.54-4.24zm-6.51-15.79c-3.65 0-6.62 1.22-8.91 3.65-2.28 2.44-3.43 5.51-3.43 9.23 0 3.52 1.11 6.54 3.33 9.08 2.22 2.53 5.06 3.8 8.51 3.8 3.59 0 6.46-1.17 8.61-3.51 2.16-2.33 3.23-5.46 3.23-9.37l-.04-.84h-19.1c.13-2.43.95-4.36 2.45-5.77 1.49-1.42 3.24-2.12 5.25-2.12 3.26 0 5.46 1.38 6.61 4.14l4.05-1.68c-.79-1.87-2.09-3.44-3.9-4.71-1.81-1.26-4.03-1.9-6.66-1.9z" transform="translate(375.846391 1.572933)"/><path d="m8 10.67h8.89l-4.37 12.06h-.15zm-7.58-10.46 10.08 26.73h3.88l10.08-26.73h-3.8l-2.58 7.25h-11.24l-2.61-7.25z" transform="translate(2.693333 57.201865)"/><path d="m8 0-7.39 18.29h3.73l5.38-14.18h.07l5.45 14.18h3.66l-7.47-18.29z" transform="translate(25.280533 57.415332)"/><path d="m8 4c1.42 0 2.71.53 3.86 1.59 1.16 1.05 1.74 2.3 1.74 3.75-.97.79-2.43 1.19-4.37 1.19-1.67 0-2.92-.36-3.77-1.08s-1.27-1.57-1.27-2.54c0-.89.39-1.6 1.16-2.13.77-.52 1.65-.78 2.65-.78m-.56-3.14c-1.94 0-3.57.56-4.87 1.68-1.31 1.12-1.96 2.6-1.96 4.45 0 1.99.77 3.55 2.31 4.68 1.55 1.13 3.45 1.7 5.71 1.7 2.02 0 3.68-.37 4.97-1.12v.52c0 1.35-.46 2.42-1.38 3.23s-2.05 1.22-3.4 1.22c-.99 0-1.9-.24-2.71-.71-.8-.48-1.36-1.12-1.66-1.94l-3.13 1.34c.42 1.09 1.25 2.11 2.5 3.04 1.24.94 2.89 1.4 4.93 1.4 2.34 0 4.28-.68 5.82-2.05s2.32-3.3 2.32-5.79v-11.05h-3.29v2.54h-.15c-1.37-2.09-3.37-3.14-6.01-3.14" transform="translate(44.394532 55.954399)"/><path d="m68.9 57.42h-3.44v18.29h3.44zm0 22.88c-.48-.47-1.05-.71-1.72-.71s-1.25.24-1.72.71-.71 1.05-.71 1.72.24 1.24.71 1.72c.47.47 1.05.71 1.72.71s1.24-.24 1.72-.71c.47-.48.71-1.05.71-1.72s-.24-1.25-.71-1.72z"/><path d="m76.81 57.42h-3.44v26.73h3.44z"/><path d="m8 4c1.42 0 2.71.53 3.86 1.59 1.16 1.05 1.74 2.3 1.74 3.75-.97.79-2.43 1.19-4.37 1.19-1.67 0-2.92-.36-3.77-1.08s-1.27-1.57-1.27-2.54c0-.89.39-1.6 1.16-2.13.77-.52 1.65-.78 2.65-.78m-.56-3.14c-1.94 0-3.57.56-4.87 1.68-1.31 1.12-1.96 2.6-1.96 4.45 0 1.99.77 3.55 2.31 4.68 1.55 1.13 3.45 1.7 5.71 1.7 2.02 0 3.68-.37 4.97-1.12v.52c0 1.35-.46 2.42-1.38 3.23s-2.05 1.22-3.4 1.22c-.99 0-1.9-.24-2.71-.71-.8-.48-1.36-1.12-1.66-1.94l-3.13 1.34c.42 1.09 1.25 2.11 2.5 3.04 1.24.94 2.89 1.4 4.93 1.4 2.34 0 4.28-.68 5.82-2.05s2.32-3.3 2.32-5.79v-11.05h-3.29v2.54h-.15c-1.37-2.09-3.37-3.14-6.01-3.14" transform="translate(79.151731 55.954399)"/><path d="m9.33 4c1.6 0 2.96.6 4.11 1.81 1.14 1.21 1.72 2.81 1.72 4.8s-.58 3.59-1.72 4.8c-1.15 1.2-2.51 1.81-4.11 1.81-1.61 0-2.99-.6-4.12-1.8-1.13-1.19-1.7-2.8-1.7-4.81 0-2.02.57-3.62 1.7-4.82 1.13-1.19 2.51-1.79 4.12-1.79m.56-3.14c-1.39 0-2.64.3-3.75.9s-1.93 1.34-2.48 2.24h-.15v-2.54h-3.29v26.73h3.44v-8.44l-.15-2.53h.15c.55.89 1.37 1.64 2.48 2.24 1.11.59 2.36.89 3.75.89 2.37 0 4.41-.93 6.13-2.8 1.71-1.86 2.57-4.18 2.57-6.94s-.86-5.08-2.57-6.95c-1.72-1.86-3.76-2.8-6.13-2.8" transform="translate(99.695331 55.954399)"/><path d="m124.67 57.42h-3.43v26.73h3.43z"/><path d="m14.67 12c-.08 1.05-.56 2.04-1.44 2.99-.88.94-2.2 1.42-3.94 1.42-1.27 0-2.37-.4-3.3-1.2-.94-.8-1.58-1.87-1.93-3.21zm-4.93-11.95c-2.77 0-5.01.92-6.74 2.77-1.73 1.84-2.59 4.16-2.59 6.98 0 2.66.84 4.95 2.51 6.87 1.68 1.91 3.83 2.87 6.44 2.87 2.72 0 4.89-.88 6.52-2.65s2.44-4.13 2.44-7.09l-.03-.64h-14.45c.1-1.84.71-3.3 1.85-4.36 1.13-1.07 2.45-1.61 3.97-1.61 2.47 0 4.13 1.05 5.01 3.14l3.06-1.27c-.6-1.42-1.58-2.61-2.95-3.57s-3.05-1.44-5.04-1.44z" transform="translate(127.21613 56.764265)"/><path d="m160.62 57.42h-3.43v18.29h3.43zm0 22.88c-.47-.47-1.04-.71-1.71-.71-.68 0-1.25.24-1.72.71-.48.47-.71 1.05-.71 1.72s.23 1.24.71 1.72c.47.47 1.04.71 1.72.71.67 0 1.24-.24 1.71-.71.47-.48.71-1.05.71-1.72s-.24-1.25-.71-1.72z"/><path d="m4 18.67v-2.54h.15c.5.87 1.28 1.61 2.35 2.22s2.22.91 3.44.91c2.26 0 3.99-.69 5.19-2.09 1.19-1.39 1.79-3.26 1.79-5.6v-11.2h-3.44v10.68c0 3.38-1.5 5.08-4.51 5.08-1.42 0-2.58-.57-3.48-1.7-.89-1.13-1.34-2.45-1.34-3.94v-10.12h-3.44v18.3z" transform="translate(164.386663 57.041732)"/><path d="m9.33 0c-1.91 0-3.38.51-4.38 1.53-1.01 1.02-1.52 2.46-1.52 4.33v9.6h-3.21v3.13h3.21v5.6h3.44v-5.6h4.48v-3.13h-4.48v-9.34c0-1.99.82-2.98 2.46-2.98.63 0 1.15.09 1.57.29l1.2-2.95c-.75-.32-1.67-.48-2.77-.48" transform="translate(192.128929 57.117199)"/><path d="m4 28v-8.44l-.15-2.53h.15c.5.86 1.28 1.61 2.35 2.22s2.22.91 3.44.91c2.26 0 3.99-.7 5.19-2.09 1.19-1.39 1.79-3.26 1.79-5.6v-11.2h-3.44v10.68c0 3.38-1.5 5.08-4.51 5.08-1.42 0-2.58-.57-3.47-1.7-.9-1.14-1.35-2.45-1.35-3.94v-10.12h-3.43v26.73z" transform="translate(206.384128 56.145865)"/><path d="m14.67 12c-.08 1.05-.56 2.04-1.44 2.99-.88.94-2.2 1.42-3.94 1.42-1.27 0-2.37-.4-3.3-1.2-.94-.8-1.58-1.87-1.93-3.21zm-4.93-11.95c-2.77 0-5.01.92-6.74 2.77-1.73 1.84-2.59 4.16-2.59 6.98 0 2.66.84 4.95 2.51 6.87 1.68 1.91 3.83 2.87 6.44 2.87 2.72 0 4.89-.88 6.52-2.65s2.44-4.13 2.44-7.09l-.03-.64h-14.45c.1-1.84.71-3.3 1.85-4.36 1.13-1.07 2.45-1.61 3.97-1.61 2.47 0 4.13 1.05 5.01 3.14l3.06-1.27c-.6-1.42-1.58-2.61-2.95-3.57s-3.05-1.44-5.04-1.44z" transform="translate(225.734394 56.764265)"/></g></g></g></svg>