<svg height="102" viewBox="0 0 221 102" width="221" xmlns="http://www.w3.org/2000/svg"><g fill="none" fill-rule="evenodd"><rect fill="#fff" height="102" rx="10" width="221"/><g fill="#000" fill-rule="nonzero"><path d="m37.3 0 36.9 21.3v31.7l-3.3-1.2v-28.7l-33.6-19.4-33.7 19.4v38.9l33.7 19.4 33.6-19.4v-6.4l3.3 1.4v6.9l-36.9 21.2-36.9-21.2v-42.6z" transform="matrix(-1 0 0 1 84.183701 8)"/><path d="m31 0 16.1 9.3.7.4 13.1 7.6v25.1l-49.5-18.4-.1.1 49.6 21.7v6l-11.2 6.4-2 1.2-16.7 9.6-8.7-5-1.6-.9-12.4-7.2-1.9-1.1-5.3-3v-34.5zm26.6 38.8c.7 0 1.2-.5 1.2-1.2 0-.6-.5-1.2-1.2-1.2-.6 0-1.1.6-1.1 1.2 0 .7.5 1.2 1.1 1.2zm-1.9-17.8c0-.6-.5-1.2-1.2-1.2-.6 0-1.2.6-1.2 1.2 0 .7.6 1.2 1.2 1.2.7 0 1.2-.5 1.2-1.2zm-2.6 10.3c1.2 0 2.2-1 2.2-2.2s-1-2.2-2.2-2.2-2.2 1-2.2 2.2 1 2.2 2.2 2.2zm-3.3-17.8c0-.7-.5-1.2-1.2-1.2-.6 0-1.2.5-1.2 1.2 0 .6.6 1.1 1.2 1.1.7 0 1.2-.5 1.2-1.1zm-2 6.6c0-.6-.5-1.1-1.2-1.1-.6 0-1.2.5-1.2 1.1 0 .7.6 1.2 1.2 1.2.7 0 1.2-.5 1.2-1.2zm-1.7 13.4c.6 0 1.2-.5 1.2-1.2 0-.6-.6-1.1-1.2-1.1-.7 0-1.2.5-1.2 1.1 0 .7.5 1.2 1.2 1.2zm-3.2-6.3c.7 0 1.2-.5 1.2-1.2 0-.6-.5-1.2-1.2-1.2-.6 0-1.1.6-1.1 1.2 0 .7.5 1.2 1.1 1.2zm-3.6-14.3c.6 0 1.2-.6 1.2-1.2 0-.7-.6-1.2-1.2-1.2-.7 0-1.2.5-1.2 1.2 0 .6.5 1.2 1.2 1.2zm-3.3 17.7c.6 0 1.2-.5 1.2-1.2 0-.6-.6-1.1-1.2-1.1-.7 0-1.2.5-1.2 1.1 0 .7.5 1.2 1.2 1.2zm-1-9.2c.6 0 1.2-.5 1.2-1.2 0-.6-.6-1.1-1.2-1.1-.7 0-1.2.5-1.2 1.1 0 .7.5 1.2 1.2 1.2zm-2.4-13.8c1.2 0 2.2-1 2.2-2.2 0-1.3-1-2.2-2.2-2.2s-2.2.9-2.2 2.2c0 1.2 1 2.2 2.2 2.2zm-3.2 6.6c.7 0 1.2-.5 1.2-1.1 0-.7-.5-1.2-1.2-1.2-.6 0-1.1.5-1.1 1.2 0 .6.5 1.1 1.1 1.1zm-3 10.5c.7 0 1.2-.5 1.2-1.2 0-.6-.5-1.2-1.2-1.2-.6 0-1.2.6-1.2 1.2 0 .7.6 1.2 1.2 1.2zm-2.8-7.1c.6 0 1.2-.5 1.2-1.1 0-.7-.6-1.2-1.2-1.2-.7 0-1.2.5-1.2 1.2 0 .6.5 1.1 1.2 1.1zm-1.5-8.5c.7 0 1.2-.6 1.2-1.2 0-.7-.5-1.2-1.2-1.2-.6 0-1.2.5-1.2 1.2 0 .6.6 1.2 1.2 1.2zm-5.5 13c1.2 0 2.2-1 2.2-2.2 0-1.3-1-2.2-2.2-2.2s-2.2.9-2.2 2.2c0 1.2 1 2.2 2.2 2.2zm-2.7-7.7c.7 0 1.2-.6 1.2-1.2 0-.7-.5-1.2-1.2-1.2-.6 0-1.2.5-1.2 1.2 0 .6.6 1.2 1.2 1.2zm43.1 35.3c.7 0 1.2-.6 1.2-1.2 0-.7-.5-1.2-1.2-1.2-.6 0-1.1.5-1.1 1.2 0 .6.5 1.2 1.1 1.2zm-7.4 4c.6 0 1.1-.6 1.1-1.2 0-.7-.5-1.2-1.1-1.2-.7 0-1.2.5-1.2 1.2 0 .6.5 1.2 1.2 1.2zm-2.1-7.7c.7 0 1.2-.5 1.2-1.2 0-.6-.5-1.2-1.2-1.2-.6 0-1.2.6-1.2 1.2 0 .7.6 1.2 1.2 1.2zm-5.9 9.3c.7 0 1.2-.6 1.2-1.2 0-.7-.5-1.2-1.2-1.2-.6 0-1.2.5-1.2 1.2 0 .6.6 1.2 1.2 1.2zm.9-8.7c0-1.2-1-2.2-2.2-2.2s-2.2 1-2.2 2.2 1 2.2 2.2 2.2 2.2-1 2.2-2.2zm-4.2 15.8c.7 0 1.2-.5 1.2-1.2 0-.6-.5-1.2-1.2-1.2-.6 0-1.2.6-1.2 1.2 0 .7.6 1.2 1.2 1.2zm-2.4-21.9c.6 0 1.2-.6 1.2-1.2 0-.7-.6-1.2-1.2-1.2-.7 0-1.2.5-1.2 1.2 0 .6.5 1.2 1.2 1.2zm-3.4 15.3c0-.6-.6-1.2-1.2-1.2-.7 0-1.2.6-1.2 1.2 0 .7.5 1.2 1.2 1.2.6 0 1.2-.5 1.2-1.2zm-2.6 11.3c.7 0 1.2-.5 1.2-1.2 0-.6-.5-1.2-1.2-1.2-.6 0-1.2.6-1.2 1.2 0 .7.6 1.2 1.2 1.2zm-.9-21.1c.6 0 1.1-.6 1.1-1.2 0-.7-.5-1.2-1.1-1.2-.7 0-1.2.5-1.2 1.2 0 .6.5 1.2 1.2 1.2zm-2.9-10.4c0-.6-.5-1.2-1.2-1.2s-1.2.6-1.2 1.2c0 .7.5 1.2 1.2 1.2s1.2-.5 1.2-1.2zm-2.5 23.9c.6 0 1.2-.5 1.2-1.2 0-.6-.6-1.2-1.2-1.2-.7 0-1.2.6-1.2 1.2 0 .7.5 1.2 1.2 1.2zm-.4-7c.6 0 1.2-.6 1.2-1.2 0-.7-.6-1.2-1.2-1.2-.7 0-1.2.5-1.2 1.2 0 .6.5 1.2 1.2 1.2zm-7.1-17.9c-.7 0-1.2.5-1.2 1.1 0 .7.5 1.2 1.2 1.2.6 0 1.2-.5 1.2-1.2 0-.6-.6-1.1-1.2-1.1zm1.7 11.5c1.3 0 2.2-.9 2.2-2.2 0-1.2-.9-2.2-2.2-2.2-1.2 0-2.2 1-2.2 2.2 0 1.3 1 2.2 2.2 2.2zm-3 12c.7 0 1.2-.5 1.2-1.2 0-.6-.5-1.2-1.2-1.2-.6 0-1.2.6-1.2 1.2 0 .7.6 1.2 1.2 1.2zm-.1-6.7c.6 0 1.2-.5 1.2-1.2 0-.6-.6-1.1-1.2-1.1-.7 0-1.2.5-1.2 1.1 0 .7.5 1.2 1.2 1.2zm-2.7-21.3c0-.7-.6-1.2-1.2-1.2-.7 0-1.2.5-1.2 1.2 0 .6.5 1.2 1.2 1.2.6 0 1.2-.6 1.2-1.2zm-3 10.5c.7 0 1.2-.5 1.2-1.2 0-.6-.5-1.2-1.2-1.2-.6 0-1.2.6-1.2 1.2 0 .7.6 1.2 1.2 1.2zm-.1-22.8c0-.6-.5-1.1-1.1-1.1-.7 0-1.2.5-1.2 1.1 0 .7.5 1.2 1.2 1.2.6 0 1.1-.5 1.1-1.2zm-1.7 15.8c0-.6-.5-1.2-1.2-1.2-.6 0-1.1.6-1.1 1.2 0 .7.5 1.2 1.1 1.2.7 0 1.2-.5 1.2-1.2zm-2.3 15.1c.7 0 1.2-.5 1.2-1.2 0-.6-.5-1.2-1.2-1.2-.6 0-1.2.6-1.2 1.2 0 .7.6 1.2 1.2 1.2zm0-22.2c.6 0 1.1-.5 1.1-1.1 0-.7-.5-1.2-1.1-1.2-.7 0-1.2.5-1.2 1.2 0 .6.5 1.1 1.2 1.1z" transform="matrix(-1 0 0 1 77.89069 16.061332)"/><path d="m1.8 16.4 15.2-16.2h2.8v18.5h-2.8-1.4v-2.3h1.4v-2.5-1.2-2.3-2.7-3.6l-5.9 6.3h4.4v2.3h-6.6l-5.6 6h-1.5-1.4v-2.3z" transform="matrix(-1 0 0 1 210.919927 41.070845)"/><path d="m3.6 7.3h-2.2v-1.3-4.6h2.2v1.8z" transform="matrix(-1 0 0 1 115.134225 39.928235)"/><path d="m3.6 12.8c.2.4.3.9.5 1.3 1.2 2.4 3.6 4 6.4 4s5.2-1.6 6.3-4c.2-.4.4-.9.5-1.3.1-.6.2-1.1.2-1.7 0-1.2-.3-2.4-.9-3.4-1.1-2.2-3.5-3.7-6.1-3.7-1.8 0-3.5.7-4.7 1.8v-3.2c1.4-.7 3-1.2 4.6-1.2 4.2 0 7.7 2.7 9.1 6.3.4 1.1.6 2.2.6 3.4 0 .6-.1 1.1-.2 1.7-.1.4-.2.9-.3 1.3-1.3 3.8-4.9 6.6-9.2 6.6-4.2 0-7.8-2.8-9.1-6.6z" transform="matrix(-1 0 0 1 115.749942 39.487184)"/><path d="m3.6 10.9c.5 3.5 3.4 6.2 7 6.2 3.9 0 7-3.1 7-7s-3.1-7-7-7c-3.6 0-6.6 2.8-7 6.3h-2.6c.4-5 4.5-8.9 9.6-8.9 5.3 0 9.6 4.3 9.6 9.6s-4.3 9.7-9.6 9.7c-5.1 0-9.2-3.9-9.6-8.9z" transform="matrix(-1 0 0 1 136.00352 40.466816)"/><path d="m5.5 0h1.4v2.3h-5.7v-2.3h1.5z" transform="matrix(-1 0 0 1 186.49625 57.545206)"/><path d="m5.5 0h5.7 4.7v2.4 1.5h-2.3v-1.5h-2.4-1.5v12.3h-2.8v-12.3h-1.4-2.3v1.5h-2.3v-1.5-2.4z" transform="matrix(-1 0 0 1 190.748066 41.309895)"/><path d="m3.6 16.4h8v-6h-8.3v-2.3h8.3v-3.3-2.2-2.4h2.8 1.4v2.4h-1.4v13.8h1.4v2.3h-1.5-2.7-10.3v-2.3-1.4h2.3z" transform="matrix(-1 0 0 1 175.077218 41.070845)"/><path d="m9.1 1.8v2.4h-6.4v1.4h-2.3v-1.4-2.4z" transform="matrix(-1 0 0 1 174.16996 39.484825)"/><path d="m5.5 0h1.4v2.3h-1.4-2.7-1.4v-2.3h1.4z" transform="matrix(-1 0 0 1 159.51375 57.4801)"/><path d="m1.8 0h2.7.3 1.5l4.9 12.7 5-12.7h1.5.3 2.6 1.5v2.3h-1.5v13.9h1.5v2.3h-1.5-2.6-1.5v-2.3h1.5v-13.8l-6.5 16.4h-.3-.3l-6.4-16.4v12.2h-2.7v-12.3h-1.4v-2.3z" transform="matrix(-1 0 0 1 158.517371 41.309895)"/></g></g></svg>