<?xml version="1.0" encoding="UTF-8" standalone="no"?>
<!DOCTYPE svg PUBLIC "-//W3C//DTD SVG 1.1//EN" "http://www.w3.org/Graphics/SVG/1.1/DTD/svg11.dtd">
<svg width="100%" height="100%" viewBox="0 0 1121 256" version="1.1" xmlns="http://www.w3.org/2000/svg" xmlns:xlink="http://www.w3.org/1999/xlink" xml:space="preserve" xmlns:serif="http://www.serif.com/" style="fill-rule:evenodd;clip-rule:evenodd;stroke-linejoin:round;stroke-miterlimit:2;">
    <g transform="matrix(1,0,0,1,-239.78,-322.01)">
        <g transform="matrix(1,0,0,1,235.17,317.09)">
            <path d="M235.68,195.46C232.267,197.245 228.747,198.818 225.14,200.17C213.66,204.466 201.498,206.654 189.24,206.63C141.92,206.63 100.7,174.08 100.7,132.31C100.823,120.917 107.122,110.446 117.13,105C74.33,106.8 63.33,151.4 63.33,177.53C63.33,251.41 131.42,258.9 146.09,258.9C154,258.9 165.93,256.6 173.09,254.34L174.4,253.9C201.947,244.377 225.444,225.748 241,201.1C241.407,200.459 241.623,199.716 241.623,198.956C241.623,196.762 239.817,194.956 237.623,194.956C236.943,194.956 236.274,195.13 235.68,195.46Z" style="fill:url(#_Linear1);fill-rule:nonzero;"/>
        </g>
        <g transform="matrix(1,0,0,1,235.17,317.09)">
            <path d="M235.68,195.46C232.267,197.245 228.747,198.818 225.14,200.17C213.66,204.466 201.498,206.654 189.24,206.63C141.92,206.63 100.7,174.08 100.7,132.31C100.823,120.917 107.122,110.446 117.13,105C74.33,106.8 63.33,151.4 63.33,177.53C63.33,251.41 131.42,258.9 146.09,258.9C154,258.9 165.93,256.6 173.09,254.34L174.4,253.9C201.947,244.377 225.444,225.748 241,201.1C241.407,200.459 241.623,199.716 241.623,198.956C241.623,196.762 239.817,194.956 237.623,194.956C236.943,194.956 236.274,195.13 235.68,195.46Z" style="fill:url(#_Radial2);fill-rule:nonzero;"/>
        </g>
        <g transform="matrix(1,0,0,1,235.17,317.09)">
            <path d="M110.34,246.34C101.421,240.804 93.691,233.55 87.6,225C77.516,211.185 72.08,194.515 72.08,177.411C72.08,146.713 89.592,118.565 117.13,105C120.25,103.53 125.58,100.87 132.67,101C142.789,101.074 152.308,105.891 158.36,114C162.398,119.391 164.625,125.925 164.72,132.66C164.72,132.45 189.18,53.06 84.72,53.06C40.82,53.06 4.72,94.72 4.72,131.27C4.547,150.604 8.684,169.735 16.83,187.27C44.254,245.783 111.905,274.816 173.21,254.38C152.133,261.025 129.167,258.099 110.43,246.38L110.34,246.34Z" style="fill:url(#_Linear3);fill-rule:nonzero;"/>
        </g>
        <g transform="matrix(1,0,0,1,235.17,317.09)">
            <path d="M110.34,246.34C101.421,240.804 93.691,233.55 87.6,225C77.516,211.185 72.08,194.515 72.08,177.411C72.08,146.713 89.592,118.565 117.13,105C120.25,103.53 125.58,100.87 132.67,101C142.789,101.074 152.308,105.891 158.36,114C162.398,119.391 164.625,125.925 164.72,132.66C164.72,132.45 189.18,53.06 84.72,53.06C40.82,53.06 4.72,94.72 4.72,131.27C4.547,150.604 8.684,169.735 16.83,187.27C44.254,245.783 111.905,274.816 173.21,254.38C152.133,261.025 129.167,258.099 110.43,246.38L110.34,246.34Z" style="fill:url(#_Radial4);fill-rule:nonzero;"/>
        </g>
        <g transform="matrix(1,0,0,1,235.17,317.09)">
            <path d="M156.94,153.78C156.13,154.83 153.64,156.28 153.64,159.44C153.64,162.05 155.34,164.56 158.36,166.67C172.74,176.67 199.85,175.35 199.92,175.35C210.574,175.324 221.029,172.44 230.19,167C248.973,156.033 260.575,135.87 260.62,114.12C260.88,91.71 252.62,76.81 249.28,70.21C228.09,28.76 182.35,4.92 132.61,4.92C63.066,4.913 5.588,61.583 4.61,131.12C5.09,94.58 41.41,65.07 84.61,65.07C88.11,65.07 108.07,65.41 126.61,75.14C142.95,83.72 151.51,94.08 157.46,104.35C163.64,115.02 164.74,128.5 164.74,133.87C164.74,139.24 162,147.2 156.94,153.78Z" style="fill:url(#_Radial5);fill-rule:nonzero;"/>
        </g>
        <g transform="matrix(1,0,0,1,235.17,317.09)">
            <path d="M156.94,153.78C156.13,154.83 153.64,156.28 153.64,159.44C153.64,162.05 155.34,164.56 158.36,166.67C172.74,176.67 199.85,175.35 199.92,175.35C210.574,175.324 221.029,172.44 230.19,167C248.973,156.033 260.575,135.87 260.62,114.12C260.88,91.71 252.62,76.81 249.28,70.21C228.09,28.76 182.35,4.92 132.61,4.92C63.066,4.913 5.588,61.583 4.61,131.12C5.09,94.58 41.41,65.07 84.61,65.07C88.11,65.07 108.07,65.41 126.61,75.14C142.95,83.72 151.51,94.08 157.46,104.35C163.64,115.02 164.74,128.5 164.74,133.87C164.74,139.24 162,147.2 156.94,153.78Z" style="fill:url(#_Radial6);fill-rule:nonzero;"/>
        </g>
        <g transform="matrix(1.04511,0,0,1.04511,-214.155,31.8795)">
            <g transform="matrix(72.5106,0,0,72.5106,740.372,375.443)">
                <path d="M0.723,0L0.914,-0.714L0.819,-0.714L0.674,-0.12L0.672,-0.12L0.514,-0.714L0.411,-0.714L0.251,-0.12L0.249,-0.12L0.109,-0.714L0.012,-0.714L0.195,0L0.294,0L0.459,-0.6L0.461,-0.6L0.624,0L0.723,0Z" style="fill:rgb(92,92,92);fill-rule:nonzero;"/>
            </g>
            <g transform="matrix(72.5106,0,0,72.5106,803.384,375.443)">
                <path d="M0.126,-0.258C0.126,-0.289 0.13,-0.317 0.139,-0.342C0.147,-0.366 0.158,-0.386 0.173,-0.403C0.188,-0.42 0.205,-0.432 0.225,-0.441C0.244,-0.45 0.265,-0.454 0.287,-0.454C0.309,-0.454 0.33,-0.45 0.35,-0.441C0.369,-0.432 0.386,-0.42 0.401,-0.403C0.416,-0.386 0.427,-0.366 0.436,-0.342C0.444,-0.317 0.448,-0.289 0.448,-0.258C0.448,-0.227 0.444,-0.199 0.436,-0.175C0.427,-0.15 0.416,-0.13 0.401,-0.114C0.386,-0.097 0.369,-0.085 0.35,-0.076C0.33,-0.067 0.309,-0.063 0.287,-0.063C0.265,-0.063 0.244,-0.067 0.225,-0.076C0.205,-0.085 0.188,-0.097 0.173,-0.114C0.158,-0.13 0.147,-0.15 0.139,-0.175C0.13,-0.199 0.126,-0.227 0.126,-0.258ZM0.036,-0.258C0.036,-0.22 0.041,-0.185 0.052,-0.152C0.063,-0.119 0.079,-0.091 0.1,-0.067C0.121,-0.042 0.148,-0.023 0.179,-0.01C0.21,0.004 0.246,0.011 0.287,0.011C0.328,0.011 0.365,0.004 0.396,-0.01C0.427,-0.023 0.453,-0.042 0.474,-0.067C0.495,-0.091 0.511,-0.119 0.522,-0.152C0.533,-0.185 0.538,-0.22 0.538,-0.258C0.538,-0.296 0.533,-0.331 0.522,-0.365C0.511,-0.398 0.495,-0.426 0.474,-0.451C0.453,-0.475 0.427,-0.494 0.396,-0.508C0.365,-0.522 0.328,-0.529 0.287,-0.529C0.246,-0.529 0.21,-0.522 0.179,-0.508C0.148,-0.494 0.121,-0.475 0.1,-0.451C0.079,-0.426 0.063,-0.398 0.052,-0.365C0.041,-0.331 0.036,-0.296 0.036,-0.258Z" style="fill:rgb(92,92,92);fill-rule:nonzero;"/>
            </g>
            <g transform="matrix(72.5106,0,0,72.5106,845.005,375.443)">
                <path d="M0.061,-0.517L0.061,0L0.146,0L0.146,-0.23C0.146,-0.263 0.149,-0.293 0.156,-0.319C0.163,-0.344 0.173,-0.366 0.188,-0.384C0.203,-0.402 0.222,-0.416 0.246,-0.425C0.27,-0.434 0.299,-0.439 0.333,-0.439L0.333,-0.529C0.287,-0.53 0.249,-0.521 0.219,-0.501C0.189,-0.481 0.164,-0.45 0.143,-0.408L0.141,-0.408L0.141,-0.517L0.061,-0.517Z" style="fill:rgb(92,92,92);fill-rule:nonzero;"/>
            </g>
            <g transform="matrix(72.5106,0,0,72.5106,869.151,375.443)">
                <path d="M0.069,-0.714L0.069,0L0.154,0L0.154,-0.196L0.234,-0.27L0.411,0L0.519,0L0.299,-0.329L0.504,-0.517L0.39,-0.517L0.154,-0.291L0.154,-0.714L0.069,-0.714Z" style="fill:rgb(92,92,92);fill-rule:nonzero;"/>
            </g>
            <g transform="matrix(72.5106,0,0,72.5106,906.784,375.443)">
                <path d="M0.116,-0.163L0.031,-0.163C0.032,-0.131 0.039,-0.104 0.051,-0.082C0.063,-0.059 0.079,-0.041 0.099,-0.028C0.119,-0.014 0.142,-0.004 0.168,0.002C0.194,0.008 0.221,0.011 0.25,0.011C0.276,0.011 0.302,0.008 0.329,0.004C0.355,-0.002 0.379,-0.01 0.4,-0.023C0.421,-0.036 0.438,-0.052 0.451,-0.073C0.464,-0.094 0.47,-0.12 0.47,-0.151C0.47,-0.176 0.465,-0.196 0.456,-0.213C0.446,-0.23 0.433,-0.244 0.418,-0.255C0.402,-0.266 0.384,-0.274 0.364,-0.281C0.343,-0.288 0.322,-0.293 0.301,-0.298C0.281,-0.303 0.261,-0.307 0.241,-0.312C0.221,-0.316 0.203,-0.321 0.187,-0.328C0.171,-0.334 0.158,-0.342 0.148,-0.352C0.137,-0.361 0.132,-0.373 0.132,-0.388C0.132,-0.401 0.135,-0.412 0.142,-0.421C0.149,-0.429 0.157,-0.436 0.168,-0.441C0.179,-0.446 0.191,-0.449 0.204,-0.451C0.217,-0.453 0.229,-0.454 0.242,-0.454C0.256,-0.454 0.27,-0.452 0.284,-0.45C0.297,-0.447 0.31,-0.442 0.321,-0.435C0.332,-0.428 0.342,-0.42 0.349,-0.409C0.356,-0.398 0.361,-0.384 0.362,-0.367L0.447,-0.367C0.445,-0.398 0.438,-0.425 0.427,-0.446C0.416,-0.467 0.401,-0.483 0.382,-0.496C0.363,-0.508 0.341,-0.517 0.316,-0.522C0.291,-0.527 0.264,-0.529 0.235,-0.529C0.212,-0.529 0.19,-0.526 0.167,-0.521C0.143,-0.515 0.123,-0.506 0.105,-0.495C0.086,-0.483 0.071,-0.468 0.06,-0.449C0.048,-0.43 0.042,-0.408 0.042,-0.382C0.042,-0.349 0.05,-0.323 0.067,-0.304C0.084,-0.285 0.105,-0.271 0.13,-0.261C0.155,-0.25 0.182,-0.242 0.211,-0.237C0.24,-0.231 0.268,-0.225 0.293,-0.218C0.318,-0.211 0.338,-0.201 0.355,-0.19C0.372,-0.179 0.38,-0.162 0.38,-0.14C0.38,-0.124 0.376,-0.111 0.368,-0.101C0.36,-0.09 0.35,-0.082 0.338,-0.077C0.325,-0.072 0.312,-0.068 0.297,-0.066C0.282,-0.064 0.268,-0.063 0.255,-0.063C0.238,-0.063 0.221,-0.065 0.205,-0.068C0.188,-0.071 0.173,-0.077 0.161,-0.085C0.148,-0.092 0.137,-0.102 0.129,-0.116C0.121,-0.129 0.117,-0.144 0.116,-0.163Z" style="fill:rgb(92,92,92);fill-rule:nonzero;"/>
            </g>
            <g transform="matrix(72.5106,0,0,72.5106,963.198,375.443)">
                <path d="M0.576,0L0.741,-0.517L0.653,-0.517L0.537,-0.094L0.535,-0.094L0.427,-0.517L0.334,-0.517L0.23,-0.094L0.228,-0.094L0.111,-0.517L0.017,-0.517L0.183,0L0.275,0L0.379,-0.411L0.381,-0.411L0.486,0L0.576,0Z" style="fill:rgb(92,92,92);fill-rule:nonzero;"/>
            </g>
            <g transform="matrix(72.5106,0,0,72.5106,1018.16,375.443)">
                <path d="M0.154,-0.61L0.154,-0.714L0.069,-0.714L0.069,-0.61L0.154,-0.61ZM0.069,-0.517L0.069,0L0.154,0L0.154,-0.517L0.069,-0.517Z" style="fill:rgb(92,92,92);fill-rule:nonzero;"/>
            </g>
            <g transform="matrix(72.5106,0,0,72.5106,1034.26,375.443)">
                <path d="M0.182,-0.517L0.182,-0.672L0.097,-0.672L0.097,-0.517L0.009,-0.517L0.009,-0.442L0.097,-0.442L0.097,-0.113C0.097,-0.089 0.099,-0.07 0.104,-0.055C0.109,-0.04 0.116,-0.029 0.126,-0.021C0.135,-0.013 0.148,-0.008 0.164,-0.005C0.179,-0.002 0.198,0 0.22,0L0.285,0L0.285,-0.075L0.246,-0.075C0.233,-0.075 0.222,-0.076 0.214,-0.077C0.205,-0.078 0.199,-0.08 0.194,-0.083C0.189,-0.086 0.186,-0.091 0.185,-0.097C0.183,-0.103 0.182,-0.111 0.182,-0.121L0.182,-0.442L0.285,-0.442L0.285,-0.517L0.182,-0.517Z" style="fill:rgb(92,92,92);fill-rule:nonzero;"/>
            </g>
            <g transform="matrix(72.5106,0,0,72.5106,1057.1,375.443)">
                <path d="M0.064,-0.714L0.064,0L0.149,0L0.149,-0.292C0.149,-0.315 0.152,-0.337 0.159,-0.357C0.165,-0.376 0.174,-0.393 0.187,-0.408C0.2,-0.423 0.216,-0.434 0.235,-0.442C0.254,-0.45 0.276,-0.454 0.302,-0.454C0.335,-0.454 0.36,-0.445 0.379,-0.426C0.398,-0.407 0.407,-0.382 0.407,-0.35L0.407,0L0.492,0L0.492,-0.34C0.492,-0.368 0.489,-0.393 0.484,-0.417C0.478,-0.44 0.468,-0.459 0.454,-0.476C0.44,-0.493 0.422,-0.506 0.399,-0.515C0.376,-0.524 0.348,-0.529 0.314,-0.529C0.299,-0.529 0.283,-0.527 0.267,-0.524C0.25,-0.521 0.235,-0.516 0.22,-0.509C0.205,-0.502 0.191,-0.493 0.179,-0.482C0.167,-0.47 0.158,-0.457 0.151,-0.441L0.149,-0.441L0.149,-0.714L0.064,-0.714Z" style="fill:rgb(92,92,92);fill-rule:nonzero;"/>
            </g>
        </g>
        <g transform="matrix(1.07407,0,0,1.07407,-270.077,-71.3951)">
            <g transform="matrix(103.728,0,0,103.728,766.163,557.965)">
                <path d="M0.069,-0.714L0.069,0L0.216,0L0.216,-0.501L0.218,-0.501L0.393,0L0.514,0L0.689,-0.506L0.691,-0.506L0.691,0L0.838,0L0.838,-0.714L0.617,-0.714L0.459,-0.223L0.457,-0.223L0.29,-0.714L0.069,-0.714Z" style="fill:rgb(85,85,85);fill-rule:nonzero;"/>
            </g>
            <g transform="matrix(103.728,0,0,103.728,860.244,557.965)">
                <path d="M0.2,-0.597L0.2,-0.714L0.058,-0.714L0.058,-0.597L0.2,-0.597ZM0.058,-0.517L0.058,0L0.2,0L0.2,-0.517L0.058,-0.517Z" style="fill:rgb(85,85,85);fill-rule:nonzero;"/>
            </g>
            <g transform="matrix(103.728,0,0,103.728,887.006,557.965)">
                <path d="M0.406,-0.335L0.545,-0.335C0.543,-0.368 0.535,-0.397 0.521,-0.422C0.507,-0.446 0.489,-0.466 0.467,-0.483C0.444,-0.499 0.419,-0.511 0.391,-0.519C0.362,-0.527 0.333,-0.531 0.302,-0.531C0.26,-0.531 0.223,-0.524 0.19,-0.51C0.157,-0.496 0.13,-0.476 0.107,-0.452C0.084,-0.427 0.067,-0.397 0.056,-0.363C0.044,-0.328 0.038,-0.291 0.038,-0.251C0.038,-0.212 0.044,-0.177 0.057,-0.145C0.07,-0.112 0.087,-0.084 0.11,-0.061C0.133,-0.038 0.16,-0.02 0.193,-0.007C0.225,0.007 0.26,0.013 0.299,0.013C0.368,0.013 0.424,-0.005 0.468,-0.041C0.512,-0.077 0.539,-0.129 0.548,-0.198L0.411,-0.198C0.406,-0.166 0.395,-0.14 0.377,-0.122C0.358,-0.102 0.332,-0.093 0.298,-0.093C0.276,-0.093 0.257,-0.098 0.242,-0.108C0.227,-0.118 0.215,-0.131 0.206,-0.147C0.197,-0.162 0.19,-0.18 0.186,-0.199C0.182,-0.218 0.18,-0.237 0.18,-0.256C0.18,-0.275 0.182,-0.295 0.186,-0.315C0.19,-0.334 0.197,-0.352 0.207,-0.369C0.216,-0.385 0.229,-0.398 0.244,-0.409C0.259,-0.419 0.278,-0.424 0.301,-0.424C0.362,-0.424 0.397,-0.394 0.406,-0.335Z" style="fill:rgb(85,85,85);fill-rule:nonzero;"/>
            </g>
            <g transform="matrix(103.728,0,0,103.728,946.545,557.965)">
                <path d="M0.054,-0.517L0.054,0L0.196,0L0.196,-0.233C0.196,-0.256 0.198,-0.278 0.203,-0.298C0.208,-0.318 0.216,-0.335 0.227,-0.351C0.238,-0.366 0.252,-0.377 0.27,-0.386C0.288,-0.395 0.31,-0.399 0.336,-0.399C0.345,-0.399 0.354,-0.399 0.363,-0.398C0.372,-0.397 0.38,-0.395 0.387,-0.394L0.387,-0.526C0.376,-0.529 0.365,-0.531 0.356,-0.531C0.338,-0.531 0.321,-0.528 0.304,-0.523C0.287,-0.518 0.272,-0.51 0.257,-0.501C0.242,-0.491 0.229,-0.479 0.218,-0.466C0.207,-0.452 0.198,-0.437 0.191,-0.421L0.189,-0.421L0.189,-0.517L0.054,-0.517Z" style="fill:rgb(85,85,85);fill-rule:nonzero;"/>
            </g>
            <g transform="matrix(103.728,0,0,103.728,985.028,557.965)">
                <path d="M0.18,-0.258C0.18,-0.279 0.182,-0.299 0.186,-0.319C0.19,-0.339 0.197,-0.357 0.207,-0.372C0.216,-0.387 0.229,-0.4 0.245,-0.41C0.261,-0.419 0.281,-0.424 0.305,-0.424C0.329,-0.424 0.349,-0.419 0.366,-0.41C0.382,-0.4 0.395,-0.387 0.405,-0.372C0.414,-0.357 0.421,-0.339 0.425,-0.319C0.429,-0.299 0.431,-0.279 0.431,-0.258C0.431,-0.237 0.429,-0.217 0.425,-0.198C0.421,-0.178 0.414,-0.16 0.405,-0.145C0.395,-0.129 0.382,-0.116 0.366,-0.107C0.349,-0.098 0.329,-0.093 0.305,-0.093C0.281,-0.093 0.261,-0.098 0.245,-0.107C0.229,-0.116 0.216,-0.129 0.207,-0.145C0.197,-0.16 0.19,-0.178 0.186,-0.198C0.182,-0.217 0.18,-0.237 0.18,-0.258ZM0.038,-0.258C0.038,-0.217 0.044,-0.179 0.057,-0.146C0.07,-0.113 0.088,-0.084 0.111,-0.061C0.134,-0.037 0.162,-0.019 0.195,-0.006C0.228,0.007 0.264,0.013 0.305,0.013C0.346,0.013 0.383,0.007 0.416,-0.006C0.449,-0.019 0.477,-0.037 0.5,-0.061C0.523,-0.084 0.541,-0.113 0.554,-0.146C0.567,-0.179 0.573,-0.217 0.573,-0.258C0.573,-0.299 0.567,-0.337 0.554,-0.371C0.541,-0.404 0.523,-0.433 0.5,-0.457C0.477,-0.48 0.449,-0.499 0.416,-0.512C0.383,-0.525 0.346,-0.531 0.305,-0.531C0.264,-0.531 0.228,-0.525 0.195,-0.512C0.162,-0.499 0.134,-0.48 0.111,-0.457C0.088,-0.433 0.07,-0.404 0.057,-0.371C0.044,-0.337 0.038,-0.299 0.038,-0.258Z" style="fill:rgb(85,85,85);fill-rule:nonzero;"/>
            </g>
            <g transform="matrix(103.728,0,0,103.728,1048.41,557.965)">
                <path d="M0.164,-0.168L0.029,-0.168C0.03,-0.133 0.038,-0.105 0.053,-0.082C0.067,-0.058 0.085,-0.04 0.108,-0.026C0.13,-0.012 0.155,-0.002 0.184,0.004C0.213,0.01 0.242,0.013 0.272,0.013C0.301,0.013 0.33,0.01 0.359,0.005C0.387,-0.001 0.412,-0.011 0.434,-0.025C0.456,-0.039 0.474,-0.057 0.488,-0.081C0.501,-0.103 0.508,-0.132 0.508,-0.166C0.508,-0.19 0.503,-0.21 0.494,-0.227C0.485,-0.243 0.472,-0.257 0.457,-0.268C0.442,-0.279 0.424,-0.287 0.405,-0.294C0.385,-0.301 0.365,-0.306 0.344,-0.311C0.324,-0.316 0.304,-0.32 0.285,-0.324C0.266,-0.328 0.249,-0.333 0.234,-0.338C0.219,-0.343 0.206,-0.349 0.197,-0.357C0.188,-0.365 0.183,-0.375 0.183,-0.388C0.183,-0.399 0.186,-0.407 0.191,-0.414C0.196,-0.42 0.203,-0.425 0.211,-0.428C0.218,-0.431 0.227,-0.434 0.236,-0.435C0.245,-0.436 0.254,-0.436 0.262,-0.436C0.287,-0.436 0.309,-0.431 0.328,-0.422C0.347,-0.412 0.357,-0.393 0.359,-0.366L0.494,-0.366C0.491,-0.398 0.483,-0.425 0.47,-0.446C0.456,-0.467 0.439,-0.483 0.418,-0.496C0.397,-0.509 0.374,-0.518 0.348,-0.523C0.321,-0.528 0.294,-0.531 0.266,-0.531C0.238,-0.531 0.211,-0.529 0.184,-0.524C0.157,-0.519 0.133,-0.51 0.112,-0.498C0.091,-0.485 0.074,-0.468 0.061,-0.447C0.048,-0.426 0.041,-0.398 0.041,-0.365C0.041,-0.342 0.046,-0.323 0.055,-0.308C0.064,-0.292 0.077,-0.279 0.092,-0.269C0.107,-0.258 0.125,-0.25 0.145,-0.244C0.164,-0.237 0.184,-0.232 0.205,-0.227C0.256,-0.216 0.295,-0.206 0.324,-0.195C0.352,-0.184 0.366,-0.168 0.366,-0.147C0.366,-0.134 0.363,-0.124 0.357,-0.116C0.351,-0.107 0.343,-0.1 0.335,-0.096C0.326,-0.09 0.316,-0.087 0.305,-0.085C0.294,-0.082 0.283,-0.081 0.273,-0.081C0.259,-0.081 0.246,-0.083 0.233,-0.086C0.22,-0.089 0.208,-0.094 0.198,-0.102C0.188,-0.109 0.18,-0.118 0.174,-0.129C0.167,-0.139 0.164,-0.153 0.164,-0.168Z" style="fill:rgb(85,85,85);fill-rule:nonzero;"/>
            </g>
            <g transform="matrix(103.728,0,0,103.728,1104.11,557.965)">
                <path d="M0.18,-0.258C0.18,-0.279 0.182,-0.299 0.186,-0.319C0.19,-0.339 0.197,-0.357 0.207,-0.372C0.216,-0.387 0.229,-0.4 0.245,-0.41C0.261,-0.419 0.281,-0.424 0.305,-0.424C0.329,-0.424 0.349,-0.419 0.366,-0.41C0.382,-0.4 0.395,-0.387 0.405,-0.372C0.414,-0.357 0.421,-0.339 0.425,-0.319C0.429,-0.299 0.431,-0.279 0.431,-0.258C0.431,-0.237 0.429,-0.217 0.425,-0.198C0.421,-0.178 0.414,-0.16 0.405,-0.145C0.395,-0.129 0.382,-0.116 0.366,-0.107C0.349,-0.098 0.329,-0.093 0.305,-0.093C0.281,-0.093 0.261,-0.098 0.245,-0.107C0.229,-0.116 0.216,-0.129 0.207,-0.145C0.197,-0.16 0.19,-0.178 0.186,-0.198C0.182,-0.217 0.18,-0.237 0.18,-0.258ZM0.038,-0.258C0.038,-0.217 0.044,-0.179 0.057,-0.146C0.07,-0.113 0.088,-0.084 0.111,-0.061C0.134,-0.037 0.162,-0.019 0.195,-0.006C0.228,0.007 0.264,0.013 0.305,0.013C0.346,0.013 0.383,0.007 0.416,-0.006C0.449,-0.019 0.477,-0.037 0.5,-0.061C0.523,-0.084 0.541,-0.113 0.554,-0.146C0.567,-0.179 0.573,-0.217 0.573,-0.258C0.573,-0.299 0.567,-0.337 0.554,-0.371C0.541,-0.404 0.523,-0.433 0.5,-0.457C0.477,-0.48 0.449,-0.499 0.416,-0.512C0.383,-0.525 0.346,-0.531 0.305,-0.531C0.264,-0.531 0.228,-0.525 0.195,-0.512C0.162,-0.499 0.134,-0.48 0.111,-0.457C0.088,-0.433 0.07,-0.404 0.057,-0.371C0.044,-0.337 0.038,-0.299 0.038,-0.258Z" style="fill:rgb(85,85,85);fill-rule:nonzero;"/>
            </g>
            <g transform="matrix(103.728,0,0,103.728,1167.49,557.965)">
                <path d="M0.085,-0.422L0.085,0L0.227,0L0.227,-0.422L0.325,-0.422L0.325,-0.517L0.227,-0.517L0.227,-0.548C0.227,-0.569 0.231,-0.584 0.24,-0.594C0.248,-0.603 0.262,-0.607 0.281,-0.607C0.299,-0.607 0.316,-0.606 0.333,-0.604L0.333,-0.71C0.321,-0.711 0.309,-0.712 0.296,-0.713C0.283,-0.713 0.271,-0.714 0.258,-0.714C0.2,-0.714 0.157,-0.699 0.128,-0.67C0.099,-0.641 0.085,-0.603 0.085,-0.557L0.085,-0.517L0,-0.517L0,-0.422L0.085,-0.422Z" style="fill:rgb(85,85,85);fill-rule:nonzero;"/>
            </g>
            <g transform="matrix(103.728,0,0,103.728,1202.03,557.965)">
                <path d="M0.234,-0.517L0.234,-0.672L0.092,-0.672L0.092,-0.517L0.006,-0.517L0.006,-0.422L0.092,-0.422L0.092,-0.117C0.092,-0.091 0.096,-0.07 0.105,-0.054C0.114,-0.038 0.126,-0.026 0.141,-0.017C0.156,-0.008 0.173,-0.003 0.193,0.001C0.212,0.004 0.233,0.005 0.255,0.005C0.269,0.005 0.283,0.005 0.298,0.004C0.313,0.003 0.326,0.002 0.338,0L0.338,-0.11C0.331,-0.109 0.324,-0.108 0.317,-0.107C0.31,-0.106 0.302,-0.106 0.294,-0.106C0.27,-0.106 0.254,-0.11 0.246,-0.118C0.238,-0.126 0.234,-0.142 0.234,-0.166L0.234,-0.422L0.338,-0.422L0.338,-0.517L0.234,-0.517Z" style="fill:rgb(85,85,85);fill-rule:nonzero;"/>
            </g>
            <g transform="matrix(103.728,0,0,103.728,1267.38,557.965)">
                <path d="M0.069,-0.714L0.069,0L0.611,0L0.611,-0.132L0.226,-0.132L0.226,-0.307L0.572,-0.307L0.572,-0.429L0.226,-0.429L0.226,-0.582L0.603,-0.582L0.603,-0.714L0.069,-0.714Z" style="fill:rgb(85,85,85);fill-rule:nonzero;"/>
            </g>
            <g transform="matrix(103.728,0,0,103.728,1334.59,557.965)">
                <path d="M0.421,-0.26C0.421,-0.239 0.419,-0.218 0.415,-0.198C0.411,-0.178 0.404,-0.16 0.395,-0.145C0.386,-0.129 0.373,-0.116 0.358,-0.107C0.342,-0.098 0.322,-0.093 0.299,-0.093C0.277,-0.093 0.258,-0.098 0.243,-0.108C0.227,-0.117 0.214,-0.13 0.204,-0.146C0.193,-0.161 0.186,-0.179 0.181,-0.199C0.176,-0.219 0.174,-0.239 0.174,-0.259C0.174,-0.28 0.176,-0.301 0.181,-0.321C0.185,-0.34 0.192,-0.358 0.202,-0.373C0.211,-0.388 0.224,-0.401 0.24,-0.41C0.256,-0.419 0.276,-0.424 0.299,-0.424C0.322,-0.424 0.342,-0.419 0.357,-0.41C0.372,-0.401 0.385,-0.389 0.395,-0.374C0.404,-0.359 0.411,-0.341 0.415,-0.322C0.419,-0.302 0.421,-0.281 0.421,-0.26ZM0.423,-0.066L0.423,0L0.558,0L0.558,-0.714L0.416,-0.714L0.416,-0.454L0.414,-0.454C0.398,-0.479 0.376,-0.499 0.349,-0.512C0.321,-0.525 0.292,-0.531 0.261,-0.531C0.223,-0.531 0.19,-0.524 0.161,-0.509C0.132,-0.494 0.109,-0.474 0.09,-0.449C0.07,-0.424 0.056,-0.396 0.047,-0.364C0.037,-0.331 0.032,-0.298 0.032,-0.263C0.032,-0.227 0.037,-0.192 0.047,-0.159C0.056,-0.126 0.07,-0.096 0.09,-0.071C0.109,-0.045 0.133,-0.024 0.162,-0.01C0.191,0.006 0.225,0.013 0.264,0.013C0.298,0.013 0.329,0.007 0.356,-0.006C0.383,-0.018 0.404,-0.038 0.421,-0.066L0.423,-0.066Z" style="fill:rgb(85,85,85);fill-rule:nonzero;"/>
            </g>
            <g transform="matrix(103.728,0,0,103.728,1397.97,557.965)">
                <path d="M0.295,-0.122C0.273,-0.122 0.255,-0.127 0.24,-0.136C0.225,-0.145 0.214,-0.157 0.205,-0.172C0.196,-0.187 0.189,-0.203 0.186,-0.222C0.182,-0.24 0.18,-0.258 0.18,-0.277C0.18,-0.296 0.182,-0.315 0.187,-0.333C0.191,-0.35 0.198,-0.366 0.208,-0.38C0.217,-0.393 0.229,-0.404 0.244,-0.412C0.258,-0.42 0.275,-0.424 0.295,-0.424C0.318,-0.424 0.338,-0.42 0.353,-0.411C0.368,-0.402 0.381,-0.391 0.39,-0.376C0.399,-0.361 0.406,-0.345 0.41,-0.326C0.414,-0.307 0.416,-0.286 0.416,-0.265C0.416,-0.246 0.414,-0.229 0.409,-0.212C0.404,-0.195 0.396,-0.179 0.386,-0.166C0.376,-0.153 0.363,-0.142 0.348,-0.134C0.333,-0.126 0.315,-0.122 0.295,-0.122ZM0.551,-0.033L0.551,-0.517L0.416,-0.517L0.416,-0.448L0.414,-0.448C0.397,-0.478 0.375,-0.499 0.35,-0.512C0.324,-0.525 0.294,-0.531 0.26,-0.531C0.224,-0.531 0.192,-0.524 0.165,-0.51C0.137,-0.496 0.114,-0.477 0.095,-0.454C0.076,-0.43 0.062,-0.403 0.053,-0.372C0.043,-0.341 0.038,-0.308 0.038,-0.275C0.038,-0.24 0.042,-0.206 0.051,-0.175C0.059,-0.143 0.072,-0.115 0.09,-0.092C0.108,-0.068 0.131,-0.049 0.159,-0.036C0.187,-0.022 0.22,-0.015 0.259,-0.015C0.29,-0.015 0.32,-0.022 0.349,-0.035C0.377,-0.048 0.399,-0.068 0.414,-0.095L0.416,-0.095L0.416,-0.027C0.417,0.01 0.408,0.04 0.39,0.064C0.371,0.088 0.342,0.1 0.302,0.1C0.277,0.1 0.254,0.095 0.235,0.085C0.216,0.074 0.203,0.056 0.196,0.029L0.055,0.029C0.057,0.058 0.065,0.084 0.08,0.105C0.094,0.126 0.112,0.143 0.134,0.156C0.155,0.169 0.179,0.179 0.206,0.186C0.232,0.192 0.258,0.195 0.283,0.195C0.342,0.195 0.39,0.187 0.425,0.171C0.46,0.155 0.487,0.135 0.506,0.113C0.525,0.09 0.537,0.065 0.543,0.038C0.548,0.011 0.551,-0.012 0.551,-0.033Z" style="fill:rgb(85,85,85);fill-rule:nonzero;"/>
            </g>
            <g transform="matrix(103.728,0,0,103.728,1461.35,557.965)">
                <path d="M0.402,-0.314L0.171,-0.314C0.172,-0.324 0.174,-0.335 0.178,-0.348C0.181,-0.361 0.188,-0.373 0.197,-0.384C0.206,-0.395 0.218,-0.405 0.233,-0.413C0.248,-0.42 0.266,-0.424 0.289,-0.424C0.324,-0.424 0.349,-0.415 0.367,-0.396C0.384,-0.377 0.395,-0.35 0.402,-0.314ZM0.171,-0.224L0.544,-0.224C0.547,-0.264 0.543,-0.302 0.534,-0.339C0.525,-0.376 0.509,-0.408 0.489,-0.437C0.468,-0.466 0.441,-0.489 0.408,-0.506C0.375,-0.523 0.337,-0.531 0.293,-0.531C0.254,-0.531 0.218,-0.524 0.186,-0.51C0.153,-0.496 0.125,-0.477 0.102,-0.453C0.079,-0.428 0.061,-0.399 0.048,-0.366C0.035,-0.333 0.029,-0.297 0.029,-0.258C0.029,-0.218 0.035,-0.181 0.048,-0.148C0.06,-0.115 0.077,-0.086 0.1,-0.062C0.123,-0.038 0.15,-0.02 0.183,-0.007C0.216,0.007 0.252,0.013 0.293,0.013C0.352,0.013 0.402,0 0.443,-0.027C0.484,-0.054 0.515,-0.098 0.535,-0.16L0.41,-0.16C0.405,-0.144 0.393,-0.129 0.372,-0.115C0.351,-0.1 0.327,-0.093 0.298,-0.093C0.258,-0.093 0.227,-0.103 0.206,-0.124C0.185,-0.145 0.173,-0.178 0.171,-0.224Z" style="fill:rgb(85,85,85);fill-rule:nonzero;"/>
            </g>
        </g>
    </g>
    <defs>
        <linearGradient id="_Linear1" x1="0" y1="0" x2="1" y2="0" gradientUnits="userSpaceOnUse" gradientTransform="matrix(178.34,0,0,178.34,63.33,181.97)"><stop offset="0" style="stop-color:rgb(12,89,164);stop-opacity:1"/><stop offset="1" style="stop-color:rgb(17,74,139);stop-opacity:1"/></linearGradient>
        <radialGradient id="_Radial2" cx="0" cy="0" r="1" gradientUnits="userSpaceOnUse" gradientTransform="matrix(95.38,0,0,-90.611,161.83,183.376)"><stop offset="0" style="stop-color:black;stop-opacity:0"/><stop offset="0.72" style="stop-color:black;stop-opacity:0"/><stop offset="0.95" style="stop-color:black;stop-opacity:0.19"/><stop offset="1" style="stop-color:black;stop-opacity:0.35"/></radialGradient>
        <linearGradient id="_Linear3" x1="0" y1="0" x2="1" y2="0" gradientUnits="userSpaceOnUse" gradientTransform="matrix(-111.39,121.33,-121.33,-111.39,157.35,104.61)"><stop offset="0" style="stop-color:rgb(27,157,226);stop-opacity:1"/><stop offset="0.16" style="stop-color:rgb(21,149,223);stop-opacity:1"/><stop offset="0.67" style="stop-color:rgb(6,128,215);stop-opacity:1"/><stop offset="1" style="stop-color:rgb(0,120,212);stop-opacity:1"/></linearGradient>
        <radialGradient id="_Radial4" cx="0" cy="0" r="1" gradientUnits="userSpaceOnUse" gradientTransform="matrix(21.486,-141.808,-114.592,-17.1888,75.2045,203.928)"><stop offset="0" style="stop-color:black;stop-opacity:0"/><stop offset="0.76" style="stop-color:black;stop-opacity:0"/><stop offset="0.95" style="stop-color:black;stop-opacity:0.2"/><stop offset="1" style="stop-color:black;stop-opacity:0.41"/></radialGradient>
        <radialGradient id="_Radial5" cx="0" cy="0" r="1" gradientUnits="userSpaceOnUse" gradientTransform="matrix(-8.0972,202.43,431.176,16.1944,30.4725,52.2968)"><stop offset="0" style="stop-color:rgb(53,193,241);stop-opacity:1"/><stop offset="0.11" style="stop-color:rgb(52,193,237);stop-opacity:1"/><stop offset="0.23" style="stop-color:rgb(47,194,223);stop-opacity:1"/><stop offset="0.31" style="stop-color:rgb(43,195,210);stop-opacity:1"/><stop offset="0.67" style="stop-color:rgb(54,199,82);stop-opacity:1"/><stop offset="1" style="stop-color:rgb(54,199,82);stop-opacity:1"/></radialGradient>
        <radialGradient id="_Radial6" cx="0" cy="0" r="1" gradientUnits="userSpaceOnUse" gradientTransform="matrix(27.2552,93.4464,75.9252,-22.3882,244.682,82.3261)"><stop offset="0" style="stop-color:rgb(102,235,110);stop-opacity:1"/><stop offset="1" style="stop-color:rgb(102,235,110);stop-opacity:0"/></radialGradient>
    </defs>
</svg>
