<?xml version="1.0" encoding="UTF-8" standalone="no"?>
<!DOCTYPE svg PUBLIC "-//W3C//DTD SVG 1.1//EN" "http://www.w3.org/Graphics/SVG/1.1/DTD/svg11.dtd">
<svg width="100%" height="100%" viewBox="0 0 1121 256" version="1.1" xmlns="http://www.w3.org/2000/svg" xmlns:xlink="http://www.w3.org/1999/xlink" xml:space="preserve" xmlns:serif="http://www.serif.com/" style="fill-rule:evenodd;clip-rule:evenodd;stroke-linejoin:round;stroke-miterlimit:2;">
    <g transform="matrix(1,0,0,1,-239.78,-322.01)">
        <g transform="matrix(1,0,0,1,235.17,317.09)">
            <path d="M235.68,195.46C232.267,197.245 228.747,198.818 225.14,200.17C213.66,204.466 201.498,206.654 189.24,206.63C141.92,206.63 100.7,174.08 100.7,132.31C100.823,120.917 107.122,110.446 117.13,105C74.33,106.8 63.33,151.4 63.33,177.53C63.33,251.41 131.42,258.9 146.09,258.9C154,258.9 165.93,256.6 173.09,254.34L174.4,253.9C201.947,244.377 225.444,225.748 241,201.1C241.407,200.459 241.623,199.716 241.623,198.956C241.623,196.762 239.817,194.956 237.623,194.956C236.943,194.956 236.274,195.13 235.68,195.46Z" style="fill:url(#_Linear1);fill-rule:nonzero;"/>
        </g>
        <g transform="matrix(1,0,0,1,235.17,317.09)">
            <path d="M235.68,195.46C232.267,197.245 228.747,198.818 225.14,200.17C213.66,204.466 201.498,206.654 189.24,206.63C141.92,206.63 100.7,174.08 100.7,132.31C100.823,120.917 107.122,110.446 117.13,105C74.33,106.8 63.33,151.4 63.33,177.53C63.33,251.41 131.42,258.9 146.09,258.9C154,258.9 165.93,256.6 173.09,254.34L174.4,253.9C201.947,244.377 225.444,225.748 241,201.1C241.407,200.459 241.623,199.716 241.623,198.956C241.623,196.762 239.817,194.956 237.623,194.956C236.943,194.956 236.274,195.13 235.68,195.46Z" style="fill:url(#_Radial2);fill-rule:nonzero;"/>
        </g>
        <g transform="matrix(1,0,0,1,235.17,317.09)">
            <path d="M110.34,246.34C101.421,240.804 93.691,233.55 87.6,225C77.516,211.185 72.08,194.515 72.08,177.411C72.08,146.713 89.592,118.565 117.13,105C120.25,103.53 125.58,100.87 132.67,101C142.789,101.074 152.308,105.891 158.36,114C162.398,119.391 164.625,125.925 164.72,132.66C164.72,132.45 189.18,53.06 84.72,53.06C40.82,53.06 4.72,94.72 4.72,131.27C4.547,150.604 8.684,169.735 16.83,187.27C44.254,245.783 111.905,274.816 173.21,254.38C152.133,261.025 129.167,258.099 110.43,246.38L110.34,246.34Z" style="fill:url(#_Linear3);fill-rule:nonzero;"/>
        </g>
        <g transform="matrix(1,0,0,1,235.17,317.09)">
            <path d="M110.34,246.34C101.421,240.804 93.691,233.55 87.6,225C77.516,211.185 72.08,194.515 72.08,177.411C72.08,146.713 89.592,118.565 117.13,105C120.25,103.53 125.58,100.87 132.67,101C142.789,101.074 152.308,105.891 158.36,114C162.398,119.391 164.625,125.925 164.72,132.66C164.72,132.45 189.18,53.06 84.72,53.06C40.82,53.06 4.72,94.72 4.72,131.27C4.547,150.604 8.684,169.735 16.83,187.27C44.254,245.783 111.905,274.816 173.21,254.38C152.133,261.025 129.167,258.099 110.43,246.38L110.34,246.34Z" style="fill:url(#_Radial4);fill-rule:nonzero;"/>
        </g>
        <g transform="matrix(1,0,0,1,235.17,317.09)">
            <path d="M156.94,153.78C156.13,154.83 153.64,156.28 153.64,159.44C153.64,162.05 155.34,164.56 158.36,166.67C172.74,176.67 199.85,175.35 199.92,175.35C210.574,175.324 221.029,172.44 230.19,167C248.973,156.033 260.575,135.87 260.62,114.12C260.88,91.71 252.62,76.81 249.28,70.21C228.09,28.76 182.35,4.92 132.61,4.92C63.066,4.913 5.588,61.583 4.61,131.12C5.09,94.58 41.41,65.07 84.61,65.07C88.11,65.07 108.07,65.41 126.61,75.14C142.95,83.72 151.51,94.08 157.46,104.35C163.64,115.02 164.74,128.5 164.74,133.87C164.74,139.24 162,147.2 156.94,153.78Z" style="fill:url(#_Radial5);fill-rule:nonzero;"/>
        </g>
        <g transform="matrix(1,0,0,1,235.17,317.09)">
            <path d="M156.94,153.78C156.13,154.83 153.64,156.28 153.64,159.44C153.64,162.05 155.34,164.56 158.36,166.67C172.74,176.67 199.85,175.35 199.92,175.35C210.574,175.324 221.029,172.44 230.19,167C248.973,156.033 260.575,135.87 260.62,114.12C260.88,91.71 252.62,76.81 249.28,70.21C228.09,28.76 182.35,4.92 132.61,4.92C63.066,4.913 5.588,61.583 4.61,131.12C5.09,94.58 41.41,65.07 84.61,65.07C88.11,65.07 108.07,65.41 126.61,75.14C142.95,83.72 151.51,94.08 157.46,104.35C163.64,115.02 164.74,128.5 164.74,133.87C164.74,139.24 162,147.2 156.94,153.78Z" style="fill:url(#_Radial6);fill-rule:nonzero;"/>
        </g>
        <g transform="matrix(1.04511,0,0,1.04511,-214.155,31.8795)">
            <text x="740.372px" y="375.443px" style="font-family:'HelveticaNeue', 'Helvetica Neue';font-size:72.511px;fill:rgb(92,92,92);">W<tspan x="803.384px 845.005px " y="375.443px 375.443px ">or</tspan>ks with</text>
        </g>
        <g transform="matrix(1.07407,0,0,1.07407,-270.077,-71.3951)">
            <text x="766.163px" y="557.965px" style="font-family:'HelveticaNeue-Bold', 'Helvetica Neue';font-weight:700;font-size:103.728px;fill:rgb(85,85,85);">Micr<tspan x="985.028px 1048.41px " y="557.965px 557.965px ">os</tspan>oft Edge</text>
        </g>
    </g>
    <defs>
        <linearGradient id="_Linear1" x1="0" y1="0" x2="1" y2="0" gradientUnits="userSpaceOnUse" gradientTransform="matrix(178.34,0,0,178.34,63.33,181.97)"><stop offset="0" style="stop-color:rgb(12,89,164);stop-opacity:1"/><stop offset="1" style="stop-color:rgb(17,74,139);stop-opacity:1"/></linearGradient>
        <radialGradient id="_Radial2" cx="0" cy="0" r="1" gradientUnits="userSpaceOnUse" gradientTransform="matrix(95.38,0,0,-90.611,161.83,183.376)"><stop offset="0" style="stop-color:black;stop-opacity:0"/><stop offset="0.72" style="stop-color:black;stop-opacity:0"/><stop offset="0.95" style="stop-color:black;stop-opacity:0.19"/><stop offset="1" style="stop-color:black;stop-opacity:0.35"/></radialGradient>
        <linearGradient id="_Linear3" x1="0" y1="0" x2="1" y2="0" gradientUnits="userSpaceOnUse" gradientTransform="matrix(-111.39,121.33,-121.33,-111.39,157.35,104.61)"><stop offset="0" style="stop-color:rgb(27,157,226);stop-opacity:1"/><stop offset="0.16" style="stop-color:rgb(21,149,223);stop-opacity:1"/><stop offset="0.67" style="stop-color:rgb(6,128,215);stop-opacity:1"/><stop offset="1" style="stop-color:rgb(0,120,212);stop-opacity:1"/></linearGradient>
        <radialGradient id="_Radial4" cx="0" cy="0" r="1" gradientUnits="userSpaceOnUse" gradientTransform="matrix(21.486,-141.808,-114.592,-17.1888,75.2045,203.928)"><stop offset="0" style="stop-color:black;stop-opacity:0"/><stop offset="0.76" style="stop-color:black;stop-opacity:0"/><stop offset="0.95" style="stop-color:black;stop-opacity:0.2"/><stop offset="1" style="stop-color:black;stop-opacity:0.41"/></radialGradient>
        <radialGradient id="_Radial5" cx="0" cy="0" r="1" gradientUnits="userSpaceOnUse" gradientTransform="matrix(-8.0972,202.43,431.176,16.1944,30.4725,52.2968)"><stop offset="0" style="stop-color:rgb(53,193,241);stop-opacity:1"/><stop offset="0.11" style="stop-color:rgb(52,193,237);stop-opacity:1"/><stop offset="0.23" style="stop-color:rgb(47,194,223);stop-opacity:1"/><stop offset="0.31" style="stop-color:rgb(43,195,210);stop-opacity:1"/><stop offset="0.67" style="stop-color:rgb(54,199,82);stop-opacity:1"/><stop offset="1" style="stop-color:rgb(54,199,82);stop-opacity:1"/></radialGradient>
        <radialGradient id="_Radial6" cx="0" cy="0" r="1" gradientUnits="userSpaceOnUse" gradientTransform="matrix(27.2552,93.4464,75.9252,-22.3882,244.682,82.3261)"><stop offset="0" style="stop-color:rgb(102,235,110);stop-opacity:1"/><stop offset="1" style="stop-color:rgb(102,235,110);stop-opacity:0"/></radialGradient>
    </defs>
</svg>
